Kill.Em.All.2013.DVDRip.x264.AAC-Acesn8s
                           
Format                                   : MPEG-4
Format profile                           : Base Media / Version 2
Codec ID                                 : mp42
File size                                : 1.30 GiB
Duration                                 : 1h 26mn
Overall bit rate mode                    : Variable
Overall bit rate                         : 2 163 Kbps


Video
ID                                       : 1
Format                                   : AVC
Format/Info                              : Advanced Video Codec
Format profile                           : Main@L3.0
Format settings, CABAC                   : Yes
Format settings, ReFrames                : 4 frames
Codec ID                                 : avc1
Codec ID/Info                            : Advanced Video Coding
Duration                                 : 1h 26mn
Bit rate mode                            : Variable
Bit rate                                 : 1 921 Kbps
Width                                    : 720 pixels
Height                                   : 304 pixels
Display aspect ratio                     : 2.35:1
Frame rate mode                          : Variable
Frame rate                               : 23.976 fps
Minimum frame rate                       : 19.965 fps
Maximum frame rate                       : 29.970 fps
Color space                              : YUV
Chroma subsampling                       : 4:2:0
Bit depth                                : 8 bits
Scan type                                : Progressive
Bits/(Pixel*Frame)                       : 0.366
Stream size                              : 1.14 GiB (87%)
Writing library                          : x264 core 112


Audio
ID                                       : 2
Format                                   : AAC
Format/Info                              : Advanced Audio Codec
Format profile                           : LC
Codec ID                                 : 40
Duration                                 : 1h 26mn
Bit rate mode                            : Variable
Bit rate                                 : 265 Kbps
Maximum bit rate                         : 364 Kbps
Channel(s)                               : 2 channels
Channel positions                        : Front: L R
Sampling rate                            : 48.0 KHz
Compression mode                         : Lossy
Delay relative to video                  : 83ms
Stream size                              : 165 MiB (12%)
Language                                 : English

Subs                                     : English (.srt)

Source                                   : NTSC DVDR 

IMDB: http://www.imdb.com/title/tt1928335/

Cast: Brahim Achabbakhe, Joe Lewis and Chia Hui Liu 

Plot: Captured international assassins are locked up inside a high-tech bunker 
known as the Killing Chamber. To break out of this concrete hell they must duel 
each other, fight deadly ninjas and battle against gangs of masked maniacs. And...if they survive this, they will have to confront Snakehead: the lethal, deranged top dog who will stop at nothing to kill'em all.  



Screens:
 
http://www.shotpix.com/images/09591320490725569148.jpg
 
http://www.shotpix.com/images/04490979575413483854.jpg
 
http://www.shotpix.com/images/39149166099129318676.jpg
 
http://www.shotpix.com/images/65322740639716827405.jpg
 
http://www.shotpix.com/images/80105026588134021719.jpg